HIERARCHY
ROOT Hips
{
	OFFSET -3.958830 18.904000 13.208200
	CHANNELS 6 Xposition Yposition Zposition Zrotation Yrotation Xrotation 
	JOINT LHipJoint
	{
		OFFSET 0.000000 0.000000 0.000000
		CHANNELS 3 Zrotation Yrotation Xrotation
		JOINT LeftUpLeg
		{
			OFFSET 1.800000 -1.400000 0.085000
			CHANNELS 3 Zrotation Yrotation Xrotation
			JOINT LeftLeg
			{
				OFFSET 2.215000 -6.000000 0.000000
				CHANNELS 3 Zrotation Yrotation Xrotation
				JOINT LeftFoot
				{
					OFFSET 2.500000 -6.900000 0.000000
					CHANNELS 3 Zrotation Yrotation Xrotation
					JOINT LeftToeBase
					{
						OFFSET 0.200000 -0.500000 1.950000
						CHANNELS 3 Zrotation Yrotation Xrotation
						End Site
						{
							OFFSET 0.000000 0.000000 0.000000
						}
					}
				}
			}
		}
	}
	JOINT RHipJoint
	{
		OFFSET 0.000000 0.000000 0.000000
		CHANNELS 3 Zrotation Yrotation Xrotation
		JOINT RightUpLeg
		{
			OFFSET -1.800000 -1.400000 0.085000
			CHANNELS 3 Zrotation Yrotation Xrotation
			JOINT RightLeg
			{
				OFFSET -2.215000 -6.000000 0.000000
				CHANNELS 3 Zrotation Yrotation Xrotation
				JOINT RightFoot
				{
					OFFSET -2.500000 -6.900000 0.000000
					CHANNELS 3 Zrotation Yrotation Xrotation
					JOINT RightToeBase
					{
						OFFSET -0.200000 -0.500000 1.950000
						CHANNELS 3 Zrotation Yrotation Xrotation
						End Site
						{
							OFFSET 0.000000 0.000000 0.000000
						}
					}
				}
			}
		}
	}
	JOINT LowerBack
	{
		OFFSET 0.000000 0.000000 0.000000
		CHANNELS 3 Zrotation Yrotation Xrotation
		JOINT Spine
		{
			OFFSET -0.087000 1.940000 -0.288900
			CHANNELS 3 Zrotation Yrotation Xrotation
			JOINT Spine1
			{
				OFFSET 0.000000 1.950000 0.060000
				CHANNELS 3 Zrotation Yrotation Xrotation
				JOINT Neck
				{
					OFFSET 0.000000 0.000000 0.000000
					CHANNELS 3 Zrotation Yrotation Xrotation
					JOINT Neck1
					{
						OFFSET 0.000000 1.600000 0.340000
						CHANNELS 3 Zrotation Yrotation Xrotation
						JOINT Head
						{
							OFFSET 0.000000 1.667000 -0.240000
							CHANNELS 3 Zrotation Yrotation Xrotation
							End Site
							{
								OFFSET 0.000000 0.000000 0.000000
							}
						}
					}
				}
				JOINT LeftShoulder
				{
					OFFSET 0.000000 0.000000 0.000000
					CHANNELS 3 Zrotation Yrotation Xrotation
					JOINT LeftArm
					{
						OFFSET 2.700000 1.550000 -0.730000
						CHANNELS 3 Zrotation Yrotation Xrotation
						JOINT LeftForeArm
						{
							OFFSET 5.450000 0.000000 0.000000
							CHANNELS 3 Zrotation Yrotation Xrotation
							JOINT LeftHand
							{
								OFFSET 3.450000 0.000000 0.000000
								CHANNELS 3 Zrotation Yrotation Xrotation
								JOINT LeftHandIndex1
								{
									OFFSET 0.750000 0.000000 0.000000
									CHANNELS 3 Zrotation Yrotation Xrotation
									End Site
									{
										OFFSET 0.000000 0.000000 0.000000
									}
								}
							}
						}
					}
				}
				JOINT RightShoulder
				{
					OFFSET 0.000000 0.000000 0.000000
					CHANNELS 3 Zrotation Yrotation Xrotation
					JOINT RightArm
					{
						OFFSET -2.700000 1.550000 -0.730000
						CHANNELS 3 Zrotation Yrotation Xrotation
						JOINT RightForeArm
						{
							OFFSET -5.450000 0.000000 0.000000
							CHANNELS 3 Zrotation Yrotation Xrotation
							JOINT RightHand
							{
								OFFSET -3.450000 0.000000 0.000000
								CHANNELS 3 Zrotation Yrotation Xrotation
								JOINT RightHandIndex1
								{
									OFFSET -0.750000 0.000000 0.000000
									CHANNELS 3 Zrotation Yrotation Xrotation
									End Site
									{
										OFFSET 0.000000 0.000000 0.000000
									}
								}
							}
						}
					}
				}
			}
		}
	}
}
MOTION
Frames: 13
Frame Time: 0.016667
-3.177120 17.772940 1.261080 8.260387 -19.466750 -11.804420 -15.277634 11.392058 6.377715 13.952963 -11.121580 -43.652975 -20.702169 23.719772 58.210465 1.159793 13.767118 -0.076823 -0.276610 -0.530240 -0.368420 18.469256 -9.959070 1.742498 -4.448721 4.101345 -22.201343 -12.041045 -3.244085 47.413744 -0.711231 -6.533335 2.197758 -0.302440 0.625480 0.151070 -3.744181 -2.025217 -8.842433 19.074428 -7.082677 37.491621 -11.015393 0.663193 -2.805457 5.463058 -7.982340 -10.598339 -19.285908 12.356801 41.948679 -5.120850 6.124280 -9.199150 -10.860586 1.889033 0.029692 -47.600406 -6.973676 -7.149923 17.029002 -38.799527 -7.642744 -3.874680 2.466985 0.778360 0.186610 -0.139180 0.048550 -0.579270 5.339908 6.607078 54.354587 4.971899 -15.917382 -10.240399 54.469796 -5.693112 1.657747 -1.011112 -0.490490 0.493760 0.589200 -0.118890 
-3.182000 17.735840 1.144730 9.567417 -18.942729 -14.439897 -15.276964 11.312328 6.406740 13.839782 -11.716366 -43.843825 -20.817167 23.149779 57.566216 0.997867 13.590699 -0.068162 -0.183140 -0.415330 -0.270290 18.470297 -10.097120 1.651296 -5.138520 3.889610 -21.300462 -12.985807 -2.829939 48.476722 -0.796283 -6.767164 2.085974 -0.196570 0.575900 0.153420 -3.729271 -1.795058 -8.806008 16.969896 -6.993785 39.872989 -10.550304 0.591480 2.587408 5.291032 -7.518198 -11.110777 -17.901414 10.950828 40.888776 -6.826150 5.651890 -12.997780 -11.599728 -4.883249 1.451552 -41.690335 -9.898618 -7.417427 23.240795 -37.844996 -9.933431 -3.849257 2.411167 0.806300 0.180720 -0.105640 0.038520 0.612931 11.420381 7.175534 49.532000 7.987727 -16.832814 -21.004144 53.711380 -11.116984 1.521913 -0.880453 -0.506270 0.534080 0.563070 -0.160910 
-3.197190 17.699350 1.049540 10.660270 -18.536921 -16.043577 -15.295119 11.233500 6.437561 13.949234 -12.075892 -44.406962 -20.778827 22.573859 56.773800 0.850825 13.376064 -0.053517 -0.118790 -0.320890 -0.194430 18.464374 -10.136135 1.624770 -5.568925 3.939519 -21.401140 -13.917807 -2.354152 49.497777 -0.868359 -6.954151 1.986458 -0.118230 0.533940 0.164730 -3.690148 -1.674312 -8.797877 15.077510 -6.633958 41.382990 -9.967390 0.630554 6.893080 5.034832 -6.782074 -11.556069 -16.026070 9.896951 40.226369 -8.088650 5.633630 -16.085020 -11.758480 -10.452820 2.872297 -35.182697 -10.889199 -8.011788 26.826649 -37.074269 -11.199034 -3.839562 2.378367 0.823840 0.179600 -0.065890 0.017700 1.403644 16.215023 7.705415 44.324362 9.782339 -17.443612 -30.293516 51.515829 -15.288383 1.420029 -0.776708 -0.507370 0.561620 0.551060 -0.189320 
-3.211210 17.665240 0.973960 11.429220 -18.637609 -16.959822 -15.343122 11.202642 6.486168 14.392848 -12.091607 -45.354336 -20.548499 22.154186 56.305944 0.789406 13.208416 -0.031365 -0.044450 -0.230440 -0.134880 18.439723 -10.054765 1.637840 -5.399468 4.206144 -21.745360 -14.908592 -1.727442 50.140056 -0.935298 -7.065947 1.925704 -0.070630 0.492730 0.195810 -3.584918 -1.784857 -8.820175 13.347898 -6.214183 42.772026 -8.986120 0.714395 9.367591 4.759897 -6.598569 -12.156715 -15.503467 9.549576 39.573424 -8.489970 5.584590 -17.520410 -11.578320 -14.081422 4.138750 -30.868317 -10.159669 -8.719538 29.375980 -36.412660 -12.003630 -3.807781 2.426906 0.821170 0.168500 -0.023960 0.027530 1.919340 19.844589 8.207321 38.711177 10.393783 -17.713755 -34.507890 49.641201 -16.853346 1.383551 -0.784918 -0.467950 0.543410 0.512110 -0.190370 
-3.218320 17.629120 0.924930 11.706036 -18.521764 -16.969334 -15.411432 11.119224 6.607132 15.345096 -12.129310 -47.057648 -20.598656 22.081796 56.203421 0.789759 13.149390 -0.041267 -0.026170 -0.183250 -0.134580 18.416634 -9.866806 1.670096 -5.222955 4.571089 -22.699738 -15.269899 -1.544098 51.512798 -0.978492 -7.284684 1.834267 -0.051530 0.456810 0.196720 -3.471181 -2.000355 -8.898191 12.266354 -6.102613 43.511851 -7.940214 0.575245 10.222874 4.568675 -6.724995 -12.685662 -15.641112 9.439169 38.703910 -8.810800 5.676280 -17.216430 -11.762690 -16.006103 5.009371 -28.581950 -8.743825 -9.182673 30.484786 -36.040996 -12.186136 -3.782553 2.504916 0.780540 0.162530 -0.020330 0.019620 2.615051 22.065951 8.573476 34.519007 10.165287 -17.773838 -36.968341 47.989641 -17.412529 1.399680 -0.833281 -0.431380 0.497290 0.493600 -0.179320 
-3.219190 17.602110 0.893550 11.755775 -18.929773 -16.954020 -15.454131 11.047682 6.699150 16.214752 -11.988523 -48.358531 -20.227117 22.087609 56.717093 0.802518 13.172750 -0.055584 0.016460 -0.122450 -0.105370 18.406472 -9.746004 1.694344 -4.972872 4.830231 -23.231704 -15.455794 -1.428397 52.000718 -1.018190 -7.351469 1.819789 -0.031630 0.422340 0.199780 -3.410107 -2.089505 -8.956608 11.849867 -6.092831 44.202771 -7.650026 0.593749 10.435816 4.726149 -6.628527 -12.837565 -15.288190 9.472891 38.383854 -9.657620 6.194120 -17.954080 -12.098301 -16.650677 5.261192 -27.396813 -7.928795 -9.347608 30.852918 -35.596384 -12.046604 -3.754977 2.537915 0.776330 0.150960 0.007140 0.037940 2.662230 22.818838 8.630227 32.737522 10.444559 -17.397158 -36.753735 46.537882 -16.763973 1.418143 -0.879041 -0.405010 0.481000 0.452440 -0.177110 
-3.234580 17.589310 0.878650 11.877261 -19.270284 -17.115452 -15.461646 11.022564 6.714782 16.517108 -11.819724 -48.694115 -19.856838 22.078017 57.111020 0.883447 13.131026 -0.045940 0.058630 -0.027170 -0.101070 18.408116 -9.726538 1.703204 -4.703779 4.898332 -23.206941 -15.673056 -1.253487 52.094786 -1.046122 -7.368337 1.822557 -0.017650 0.390740 0.210630 -3.405661 -2.075141 -8.965869 11.692563 -5.963281 44.289323 -7.583622 0.705962 11.095314 4.730980 -6.607665 -13.260635 -15.323885 9.531416 38.421368 -9.536060 6.333900 -17.709720 -11.066021 -17.239550 5.760588 -28.541020 -8.029797 -9.253186 30.984732 -33.492582 -11.574503 -3.732515 2.613806 0.719540 0.142240 0.040560 0.060300 1.674164 23.481274 8.952634 34.114526 10.425390 -17.507528 -37.650585 44.875797 -16.950790 1.471371 -0.953123 -0.328810 0.442760 0.400910 -0.133380 
-3.255940 17.578360 0.883680 11.810856 -19.832636 -17.116961 -15.456203 11.008204 6.676690 17.105323 -11.205967 -48.255282 -20.046962 22.454889 57.088425 0.846899 13.269602 -0.077331 0.025610 -0.090360 -0.092790 18.416525 -9.698312 1.762475 -4.224249 5.223155 -23.271824 -15.903702 -1.070188 52.501551 -1.066809 -7.415749 1.817370 -0.029210 0.420630 0.192570 -3.431859 -2.015349 -8.982499 11.919075 -5.825509 44.124272 -7.887510 0.972372 10.764471 4.850598 -6.405844 -13.129233 -14.888680 9.848245 38.932515 -9.513940 6.704750 -18.230820 -10.600172 -16.500881 5.582851 -30.641601 -8.251497 -8.963618 30.101065 -32.528351 -11.124114 -3.760345 2.526387 0.772880 0.145930 0.034690 0.050420 0.930600 22.628669 8.840677 37.218200 10.961771 -17.205181 -36.599682 43.716625 -16.221717 1.474588 -0.915885 -0.392370 0.504390 0.430880 -0.163030 
-3.276540 17.570150 0.910980 11.466525 -20.047786 -16.864946 -15.430096 10.975965 6.651928 17.440060 -10.815759 -47.877554 -19.929834 22.975462 57.944211 0.882192 13.507907 -0.140959 -0.023060 -0.170710 -0.124480 18.440228 -9.702120 1.809930 -3.946624 5.428025 -23.240286 -15.439041 -1.370738 53.095602 -1.068332 -7.497432 1.798233 -0.068290 0.443930 0.184490 -3.515414 -1.885980 -9.006665 12.938984 -6.105764 43.613327 -8.588752 1.131205 9.432021 5.020744 -6.455718 -13.048710 -15.107580 9.996514 39.625150 -8.914680 6.538270 -17.409600 -10.614873 -15.000004 5.236033 -33.572149 -7.637004 -8.949437 27.975907 -33.043743 -10.582507 -3.766114 2.494810 0.800160 0.146140 0.010240 0.034820 0.578459 21.203474 8.796344 41.611257 10.292719 -17.473243 -34.191245 44.850633 -15.510108 1.477066 -0.885246 -0.424500 0.510910 0.469150 -0.175270 
-3.297240 17.577270 0.967090 11.089600 -20.107700 -16.262997 -15.414673 11.023290 6.615196 17.540596 -10.437201 -47.069496 -20.263273 23.645653 58.413998 0.981322 13.694251 -0.189660 -0.089210 -0.256600 -0.193860 18.442140 -9.682816 1.863133 -3.575831 5.546144 -23.421328 -15.512985 -1.360044 53.103836 -1.047828 -7.501149 1.815313 -0.139360 0.451510 0.188910 -3.538553 -1.913732 -9.051185 13.955199 -6.298915 42.671493 -9.274091 1.303628 6.925740 5.480924 -6.314219 -13.070322 -15.230586 10.134341 41.207916 -8.587800 6.629300 -15.387500 -11.861083 -12.991357 4.684545 -36.555107 -6.009975 -9.240821 25.241708 -33.792324 -9.757239 -3.762705 2.515976 0.800620 0.144670 -0.010540 0.024830 0.866308 19.278819 8.869528 46.412510 8.225874 -18.070350 -30.174854 46.559536 -14.078196 1.510752 -0.883869 -0.417280 0.464340 0.502290 -0.166280 
-3.316060 17.584500 1.047660 10.423769 -20.681640 -14.919563 -15.402284 11.037316 6.601175 17.794930 -9.809049 -46.746375 -20.098735 24.525371 59.629704 1.188314 13.945742 -0.228880 -0.143610 -0.321190 -0.246300 18.451471 -9.606645 1.965556 -2.783583 5.851456 -23.943383 -15.452734 -1.331751 52.960272 -1.019346 -7.440313 1.858273 -0.225170 0.443560 0.180160 -3.583189 -1.931211 -9.133819 15.528578 -6.419062 41.136937 -10.043661 1.638213 2.712601 5.838963 -6.272535 -12.784948 -15.477556 10.390464 43.067158 -7.636730 6.844480 -12.041160 -13.390711 -9.041993 3.582411 -40.101119 -3.205555 -9.871908 20.986025 -35.968499 -8.536320 -3.729686 2.570353 0.759440 0.126640 -0.024850 0.027390 1.586130 15.712035 8.615751 51.494825 5.513538 -18.319989 -24.612986 47.697568 -11.593387 1.626110 -0.927707 -0.373440 0.393090 0.491850 -0.132900 
-3.341740 17.593080 1.146590 9.799726 -20.760705 -13.603233 -15.402666 11.155717 6.575794 17.457003 -9.642771 -46.202132 -19.562292 25.236459 61.365983 1.350600 14.268372 -0.263585 -0.226170 -0.439240 -0.312680 18.436665 -9.553647 1.989617 -2.230401 5.772124 -23.849122 -15.344467 -1.429262 52.440296 -0.984924 -7.313928 1.948762 -0.320640 0.478740 0.151520 -3.556415 -2.150761 -9.177250 16.595188 -6.674714 39.882250 -10.318810 1.562477 -2.515904 5.998900 -6.528747 -12.291859 -16.246672 11.141414 44.652235 -6.581300 7.110750 -9.778010 -13.078789 -3.100231 2.303546 -44.936127 0.895163 -10.929666 14.141362 -38.489992 -6.538556 -3.712402 2.555521 0.787940 0.110270 -0.043190 0.040130 0.918117 10.353188 7.989468 56.451337 2.620428 -18.393549 -16.217754 48.288851 -7.689447 1.726137 -0.940775 -0.398150 0.399220 0.510980 -0.120000 
-3.376880 17.598970 1.261630 9.208107 -20.600155 -11.054554 -15.423708 11.193970 6.581687 17.190194 -9.370536 -46.528216 -18.928952 25.932086 62.847809 1.548462 14.544828 -0.277035 -0.334650 -0.576480 -0.401530 18.422474 -9.393932 2.109646 -1.619431 6.070721 -25.265940 -15.313789 -1.432362 52.319332 -0.923403 -7.262833 2.010258 -0.433370 0.526800 0.130960 -3.523754 -2.372220 -9.287289 17.792574 -6.336389 36.609626 -10.418271 1.750416 -7.521235 6.144051 -6.227450 -11.768088 -15.588029 11.125036 45.861749 -5.959770 7.795700 -3.937970 -12.935913 2.822034 1.208290 -47.411832 6.462833 -12.157387 5.718579 -40.194936 -3.655187 -3.727684 2.622501 0.743860 0.135130 -0.095390 0.050090 0.442931 4.609007 7.629603 59.929748 -2.311408 -19.021070 -7.563672 48.469744 -3.736783 1.827702 -1.010633 -0.398370 0.351280 0.525590 -0.092130 
